<svg width="2717" height="210" viewBox="0 0 2717 210" fill="none" xmlns="http://www.w3.org/2000/svg">
<path d="M49.4588 0.512329H0.265625L72.5724 209.967H129.641L201.845 0.512329H152.754L102.027 159.649H100.084L49.4588 0.512329Z" fill="white"/>
<path d="M235.314 209.967L250.859 162.206H326.439L341.984 209.967H389.439L317.234 0.512329H260.166L187.859 209.967H235.314ZM262.109 127.637L287.882 48.376H289.518L315.291 127.637H262.109Z" fill="white"/>
<path d="M414.649 209.967H458.933V135.717H491.251L530.933 209.967H579.82L535.331 128.558C559.161 118.331 572.354 97.5691 572.354 68.9328C572.354 27.3078 544.842 0.512329 497.286 0.512329H414.649V209.967ZM458.933 100.126V36.7169H488.797C514.365 36.7169 526.74 48.0692 526.74 68.9328C526.74 89.6941 514.365 100.126 489.001 100.126H458.933Z" fill="white"/>
<path d="M603.649 209.967H647.933V150.444L669.717 123.853L727.092 209.967H780.07L701.422 94.2964L779.149 0.512329H726.07L650.695 92.8646H647.933V0.512329H603.649V209.967Z" fill="white"/>
<path d="M838.314 209.967L853.859 162.206H929.439L944.984 209.967H992.439L920.234 0.512329H863.166L790.859 209.967H838.314ZM865.109 127.637L890.882 48.376H892.518L918.291 127.637H865.109Z" fill="white"/>
<path d="M1017.65 209.967H1061.93V135.717H1094.25L1133.93 209.967H1182.82L1138.33 128.558C1162.16 118.331 1175.35 97.5691 1175.35 68.9328C1175.35 27.3078 1147.84 0.512329 1100.29 0.512329H1017.65V209.967ZM1061.93 100.126V36.7169H1091.8C1117.37 36.7169 1129.74 48.0692 1129.74 68.9328C1129.74 89.6941 1117.37 100.126 1092 100.126H1061.93Z" fill="white"/>
<path d="M1250.93 0.512329H1206.65V209.967H1250.93V0.512329Z" fill="white"/>
<path d="M1323.47 209.967L1339.02 162.206H1414.6L1430.14 209.967H1477.6L1405.39 0.512329H1348.32L1276.02 209.967H1323.47ZM1350.27 127.637L1376.04 48.376H1377.67L1403.45 127.637H1350.27Z" fill="white"/>
<path d="M1514.77 0.512329H1465.58L1537.88 209.967H1594.95L1667.16 0.512329H1618.07L1567.34 159.649H1565.4L1514.77 0.512329Z" fill="white"/>
<path d="M1700.63 209.967L1716.17 162.206H1791.75L1807.3 209.967H1854.75L1782.55 0.512329H1725.48L1653.17 209.967H1700.63ZM1727.42 127.637L1753.19 48.376H1754.83L1780.6 127.637H1727.42Z" fill="white"/>
<path d="M1879.96 209.967H1924.25V135.717H1956.56L1996.25 209.967H2045.13L2000.64 128.558C2024.47 118.331 2037.67 97.5691 2037.67 68.9328C2037.67 27.3078 2010.15 0.512329 1962.6 0.512329H1879.96V209.967ZM1924.25 100.126V36.7169H1954.11C1979.68 36.7169 1992.05 48.0692 1992.05 68.9328C1992.05 89.6941 1979.68 100.126 1954.31 100.126H1924.25Z" fill="white"/>
<path d="M2068.96 209.967H2113.25V150.444L2135.03 123.853L2192.4 209.967H2245.38L2166.73 94.2964L2244.46 0.512329H2191.38L2116.01 92.8646H2113.25V0.512329H2068.96V209.967Z" fill="white"/>
<path d="M2303.63 209.967L2319.17 162.206H2394.75L2410.3 209.967H2457.75L2385.55 0.512329H2328.48L2256.17 209.967H2303.63ZM2330.42 127.637L2356.19 48.376H2357.83L2383.6 127.637H2330.42Z" fill="white"/>
<path d="M2482.96 209.967H2527.25V135.717H2559.56L2599.25 209.967H2648.13L2603.64 128.558C2627.47 118.331 2640.67 97.5691 2640.67 68.9328C2640.67 27.3078 2613.15 0.512329 2565.6 0.512329H2482.96V209.967ZM2527.25 100.126V36.7169H2557.11C2582.68 36.7169 2595.05 48.0692 2595.05 68.9328C2595.05 89.6941 2582.68 100.126 2557.31 100.126H2527.25Z" fill="white"/>
<path d="M2716.25 0.512329H2671.96V209.967H2716.25V0.512329Z" fill="white"/>
</svg>
