<svg width="3326" height="214" viewBox="0 0 3326 214" fill="none" xmlns="http://www.w3.org/2000/svg">
<mask id="path-1-outside-1_10_156" maskUnits="userSpaceOnUse" x="-0.147705" y="0.54541" width="3326" height="214" fill="black">
<rect fill="white" x="-0.147705" y="0.54541" width="3326" height="214"/>
<path d="M52.0455 2.54541H2.85229L75.1591 212H132.227L204.432 2.54541H155.341L104.614 161.682H102.67L52.0455 2.54541ZM237.901 212L253.446 164.239H329.026L344.571 212H392.026L319.821 2.54541H262.753L190.446 212H237.901ZM264.696 129.67L290.469 50.409H292.105L317.878 129.67H264.696ZM417.236 212H461.52V137.75H493.838L533.52 212H582.406L537.918 130.591C561.747 120.364 574.94 99.6022 574.94 70.9659C574.94 29.3409 547.429 2.54541 499.872 2.54541H417.236V212ZM461.52 102.159V38.75H491.384C516.952 38.75 529.327 50.1022 529.327 70.9659C529.327 91.7272 516.952 102.159 491.588 102.159H461.52ZM606.236 212H650.52V152.477L672.304 125.886L729.679 212H782.656L704.009 96.3295L781.736 2.54541H728.656L653.281 94.8977H650.52V2.54541H606.236V212ZM840.901 212L856.446 164.239H932.026L947.571 212H995.026L922.821 2.54541H865.753L793.446 212H840.901ZM867.696 129.67L893.469 50.409H895.105L920.878 129.67H867.696ZM1020.24 212H1064.52V137.75H1096.84L1136.52 212H1185.41L1140.92 130.591C1164.75 120.364 1177.94 99.6022 1177.94 70.9659C1177.94 29.3409 1150.43 2.54541 1102.87 2.54541H1020.24V212ZM1064.52 102.159V38.75H1094.38C1119.95 38.75 1132.33 50.1022 1132.33 70.9659C1132.33 91.7272 1119.95 102.159 1094.59 102.159H1064.52ZM1253.52 2.54541H1209.24V212H1253.52V2.54541ZM1326.06 212L1341.6 164.239H1417.18L1432.73 212H1480.18L1407.98 2.54541H1350.91L1278.6 212H1326.06ZM1352.85 129.67L1378.62 50.409H1380.26L1406.03 129.67H1352.85ZM1517.36 2.54541H1468.16L1540.47 212H1597.54L1669.74 2.54541H1620.65L1569.93 161.682H1567.98L1517.36 2.54541ZM1703.21 212L1718.76 164.239H1794.34L1809.88 212H1857.34L1785.13 2.54541H1728.07L1655.76 212H1703.21ZM1730.01 129.67L1755.78 50.409H1757.42L1783.19 129.67H1730.01ZM1882.55 212H1926.83V137.75H1959.15L1998.83 212H2047.72L2003.23 130.591C2027.06 120.364 2040.25 99.6022 2040.25 70.9659C2040.25 29.3409 2012.74 2.54541 1965.18 2.54541H1882.55V212ZM1926.83 102.159V38.75H1956.7C1982.26 38.75 1994.64 50.1022 1994.64 70.9659C1994.64 91.7272 1982.26 102.159 1956.9 102.159H1926.83ZM2071.55 212H2115.83V152.477L2137.62 125.886L2194.99 212H2247.97L2169.32 96.3295L2247.05 2.54541H2193.97L2118.59 94.8977H2115.83V2.54541H2071.55V212ZM2306.21 212L2321.76 164.239H2397.34L2412.88 212H2460.34L2388.13 2.54541H2331.07L2258.76 212H2306.21ZM2333.01 129.67L2358.78 50.409H2360.42L2386.19 129.67H2333.01ZM2485.55 212H2529.83V137.75H2562.15L2601.83 212H2650.72L2606.23 130.591C2630.06 120.364 2643.25 99.6022 2643.25 70.9659C2643.25 29.3409 2615.74 2.54541 2568.18 2.54541H2485.55V212ZM2529.83 102.159V38.75H2559.7C2585.26 38.75 2597.64 50.1022 2597.64 70.9659C2597.64 91.7272 2585.26 102.159 2559.9 102.159H2529.83ZM2718.83 2.54541H2674.55V212H2718.83V2.54541ZM2791.37 212L2806.91 164.239H2882.49L2898.04 212H2945.49L2873.29 2.54541H2816.22L2743.91 212H2791.37ZM2818.16 129.67L2843.94 50.409H2845.57L2871.35 129.67H2818.16ZM2982.67 2.54541H2933.48L3005.78 212H3062.85L3135.06 2.54541H3085.97L3035.24 161.682H3033.3L2982.67 2.54541ZM3168.53 212L3184.07 164.239H3259.65L3275.2 212H3322.65L3250.45 2.54541H3193.38L3121.07 212H3168.53ZM3195.32 129.67L3221.09 50.409H3222.73L3248.5 129.67H3195.32Z"/>
</mask>
<path d="M52.0455 2.54541H2.85229L75.1591 212H132.227L204.432 2.54541H155.341L104.614 161.682H102.67L52.0455 2.54541ZM237.901 212L253.446 164.239H329.026L344.571 212H392.026L319.821 2.54541H262.753L190.446 212H237.901ZM264.696 129.67L290.469 50.409H292.105L317.878 129.67H264.696ZM417.236 212H461.52V137.75H493.838L533.52 212H582.406L537.918 130.591C561.747 120.364 574.94 99.6022 574.94 70.9659C574.94 29.3409 547.429 2.54541 499.872 2.54541H417.236V212ZM461.52 102.159V38.75H491.384C516.952 38.75 529.327 50.1022 529.327 70.9659C529.327 91.7272 516.952 102.159 491.588 102.159H461.52ZM606.236 212H650.52V152.477L672.304 125.886L729.679 212H782.656L704.009 96.3295L781.736 2.54541H728.656L653.281 94.8977H650.52V2.54541H606.236V212ZM840.901 212L856.446 164.239H932.026L947.571 212H995.026L922.821 2.54541H865.753L793.446 212H840.901ZM867.696 129.67L893.469 50.409H895.105L920.878 129.67H867.696ZM1020.24 212H1064.52V137.75H1096.84L1136.52 212H1185.41L1140.92 130.591C1164.75 120.364 1177.94 99.6022 1177.94 70.9659C1177.94 29.3409 1150.43 2.54541 1102.87 2.54541H1020.24V212ZM1064.52 102.159V38.75H1094.38C1119.95 38.75 1132.33 50.1022 1132.33 70.9659C1132.33 91.7272 1119.95 102.159 1094.59 102.159H1064.52ZM1253.52 2.54541H1209.24V212H1253.52V2.54541ZM1326.06 212L1341.6 164.239H1417.18L1432.73 212H1480.18L1407.98 2.54541H1350.91L1278.6 212H1326.06ZM1352.85 129.67L1378.62 50.409H1380.26L1406.03 129.67H1352.85ZM1517.36 2.54541H1468.16L1540.47 212H1597.54L1669.74 2.54541H1620.65L1569.93 161.682H1567.98L1517.36 2.54541ZM1703.21 212L1718.76 164.239H1794.34L1809.88 212H1857.34L1785.13 2.54541H1728.07L1655.76 212H1703.21ZM1730.01 129.67L1755.78 50.409H1757.42L1783.19 129.67H1730.01ZM1882.55 212H1926.83V137.75H1959.15L1998.83 212H2047.72L2003.23 130.591C2027.06 120.364 2040.25 99.6022 2040.25 70.9659C2040.25 29.3409 2012.74 2.54541 1965.18 2.54541H1882.55V212ZM1926.83 102.159V38.75H1956.7C1982.26 38.75 1994.64 50.1022 1994.64 70.9659C1994.64 91.7272 1982.26 102.159 1956.9 102.159H1926.83ZM2071.55 212H2115.83V152.477L2137.62 125.886L2194.99 212H2247.97L2169.32 96.3295L2247.05 2.54541H2193.97L2118.59 94.8977H2115.83V2.54541H2071.55V212ZM2306.21 212L2321.76 164.239H2397.34L2412.88 212H2460.34L2388.13 2.54541H2331.07L2258.76 212H2306.21ZM2333.01 129.67L2358.78 50.409H2360.42L2386.19 129.67H2333.01ZM2485.55 212H2529.83V137.75H2562.15L2601.83 212H2650.72L2606.23 130.591C2630.06 120.364 2643.25 99.6022 2643.25 70.9659C2643.25 29.3409 2615.74 2.54541 2568.18 2.54541H2485.55V212ZM2529.83 102.159V38.75H2559.7C2585.26 38.75 2597.64 50.1022 2597.64 70.9659C2597.64 91.7272 2585.26 102.159 2559.9 102.159H2529.83ZM2718.83 2.54541H2674.55V212H2718.83V2.54541ZM2791.37 212L2806.91 164.239H2882.49L2898.04 212H2945.49L2873.29 2.54541H2816.22L2743.91 212H2791.37ZM2818.16 129.67L2843.94 50.409H2845.57L2871.35 129.67H2818.16ZM2982.67 2.54541H2933.48L3005.78 212H3062.85L3135.06 2.54541H3085.97L3035.24 161.682H3033.3L2982.67 2.54541ZM3168.53 212L3184.07 164.239H3259.65L3275.2 212H3322.65L3250.45 2.54541H3193.38L3121.07 212H3168.53ZM3195.32 129.67L3221.09 50.409H3222.73L3248.5 129.67H3195.32Z" stroke="white" stroke-width="4" mask="url(#path-1-outside-1_10_156)"/>
</svg>
