<svg width="76" height="76" viewBox="0 0 76 76" fill="none" xmlns="http://www.w3.org/2000/svg">
<g clip-path="url(#clip0_2_350)">
<path d="M23.7563 0H31.92V3.41367H27.17V6.82733H31.92V10.241H23.7563V0Z" fill="white"/>
<path d="M33.5508 0H41.7176V2.97033H36.9676V3.5625H41.7176V10.3898H33.5508V7.27383H38.3008V6.6785H33.5508V0Z" fill="white"/>
<path d="M43.3516 0H51.5121V2.97033H46.7621V3.5625H51.5121V10.3898H43.3516V7.27383H48.1016V6.6785H43.3516V0Z" fill="white"/>
<path fill-rule="evenodd" clip-rule="evenodd" d="M37.9715 76L15.9822 69.8947L9.5 14.9372H66.5L60.021 69.8883L37.9715 76ZM22.3155 39.8145L22.9203 46.5532H46.2808L45.4987 55.2932L37.981 57.3262H37.9747L30.4697 55.2995L29.9883 49.9257H23.2212L24.1648 60.5087L37.9715 64.3403L51.8003 60.5087L53.485 41.6227L53.6497 39.8145L54.8657 26.1693H21.1027L21.717 32.9112H47.481L46.8667 39.8145H22.3155Z" fill="white"/>
</g>
<defs>
<clipPath id="clip0_2_350">
<rect width="76" height="76" fill="white"/>
</clipPath>
</defs>
</svg>
