<svg width="77" height="76" viewBox="0 0 77 76" fill="none" xmlns="http://www.w3.org/2000/svg">
<g clip-path="url(#clip0_2_439)">
<path d="M23.2121 65.4123C20.317 63.1227 17.2248 60.9473 15.1229 57.8669C10.6816 52.4495 7.2545 46.1771 4.9175 39.5723C3.50675 35.2925 3.02463 30.6897 1.20538 26.5596C-0.699372 23.579 1.526 20.3015 4.80588 19.3491C6.2665 19.0641 8.83863 17.6914 5.7345 18.6818C2.951 20.71 2.69213 16.8269 5.53738 16.5799C7.48013 16.321 8.19738 14.725 7.53 13.3024C5.45188 11.9415 12.6006 10.4453 9.0025 8.40275C5.25475 4.35813 14.2465 3.57913 12.033 8.16763C11.501 11.7064 18.3173 7.524 16.7331 11.6066C18.341 13.5613 22.7443 12.0531 22.6326 14.7986C24.9839 14.9601 25.7866 16.9266 27.9764 17.0739C30.2659 18.1141 34.3841 18.9169 35.1631 21.4771C32.8998 23.2703 27.6676 17.7911 27.4206 22.7383C28.0999 30.0485 27.9289 37.582 30.6008 44.5455C31.8738 48.7635 34.9423 52.0909 37.7139 55.3684C40.362 58.596 43.9483 60.8475 47.6105 62.7665C50.8263 64.2746 54.2914 65.2769 57.7898 65.9086C59.2005 64.8209 61.7109 60.7881 63.9244 62.4934C64.0241 64.3981 59.533 66.4881 63.713 66.2791C66.1616 65.5358 67.8693 68.172 69.8975 65.797C71.7524 67.9986 77.64 64.3862 76.3171 68.9011C74.524 70.0506 71.902 69.3595 70.1065 70.9413C67.1496 69.4688 64.7865 72.2641 61.509 71.9174C57.8646 72.5433 54.1725 72.8492 50.4748 72.8317C44.4256 72.3496 38.2411 72.1525 32.477 70.0482C29.2351 69.0959 26.0693 67.2529 23.2121 65.4099V65.4123ZM28.3208 67.6258C31.4866 68.9866 34.5931 70.433 38.0678 70.8795C43.573 71.6348 49.2635 72.8223 54.7925 71.7464C52.294 70.6087 49.6958 72.1929 47.2091 70.9294C44.2166 71.573 41.0128 70.7679 37.968 70.3736C34.5171 68.8394 30.7813 67.7754 27.5394 65.7709C23.5066 64.2984 29.6294 67.6638 30.7314 67.9488C33.256 69.3833 27.9479 67.2054 27.2069 66.6116C25.0908 65.4241 24.82 65.6711 26.9955 66.8705C27.4278 67.1294 27.8624 67.4025 28.3184 67.6258H28.3208ZM22.2954 63.3579C25.3639 64.4955 22.2835 61.2061 20.8728 61.3914C20.2553 60.3155 18.4978 59.622 19.7351 59.0544C17.4955 59.8215 17.3981 56.1094 16.346 56.6295C13.9829 55.8861 15.4316 53.2523 12.622 51.6325C12.3631 49.9249 9.82663 48.4405 9.00963 45.8565C8.651 44.5455 6.1525 40.7479 7.68675 44.2724C8.99775 47.6734 11.311 50.5804 13.2276 53.4874C14.7239 56.2448 16.4814 59.1399 19.2031 60.8594C20.1175 61.7381 20.9963 63.0871 22.2954 63.3579ZM13.4509 53.6489C13.5506 53.1905 14.0066 54.6511 13.4509 53.6489V53.6489ZM25.9695 64.7188C26.6488 64.4219 24.9934 64.3483 25.9695 64.7188V64.7188ZM27.6391 65.3363C27.4658 64.4955 26.872 65.7946 27.6391 65.3363V65.3363ZM29.7291 66.2031C30.7195 65.2508 28.1949 65.6094 29.7291 66.2031V66.2031ZM33.3059 68.1958C33.9115 67.3051 31.3631 67.8609 33.3059 68.1958V68.1958ZM26.4398 63.4077C27.974 62.4055 24.4353 63.3959 26.4398 63.4077V63.4077ZM27.9978 64.1867C27.9598 63.6547 27.442 64.4219 27.9978 64.1867V64.1867ZM35.8163 69.0721C37.0774 69.863 43.1645 70.8035 39.355 69.3928C38.7233 69.5281 32.2918 67.5735 35.8163 69.0721ZM23.4093 59.3988C23.2858 58.8668 21.4546 58.805 23.4093 59.3988V59.3988ZM27.0454 61.5149C27.9978 60.8594 25.0789 61.0066 27.0454 61.5149V61.5149ZM30.1139 63.3959C31.4748 62.8876 27.9004 62.8758 30.1139 63.3959V63.3959ZM21.9249 57.779C23.3974 58.9166 27.8743 57.9286 24.1883 57.1116C22.5068 56.2091 18.721 55.6035 21.2931 57.6436L21.9249 57.779ZM32.1801 64.0514C32.7976 62.9993 29.608 63.4458 32.1801 64.0514V64.0514ZM29.0618 61.5648C32.6741 62.5908 26.0313 59.2895 28.1711 61.1943L28.6533 61.4056L29.0618 61.5648ZM35.3199 65.1771C38.7328 65.2151 32.2276 64.7069 35.3199 65.1771V65.1771ZM20.6139 55.8006C20.4785 55.1689 19.7731 55.8624 20.6139 55.8006V55.8006ZM41.0983 68.4166C41.1838 67.2671 39.9844 69.2835 41.0983 68.4166V68.4166ZM26.4398 59.375C26.2284 58.7694 25.3758 59.3512 26.4398 59.375V59.375ZM20.9345 55.404C22.8891 55.2924 18.2508 54.5371 20.9345 55.404V55.404ZM14.4033 51.186C14.1681 50.2455 12.2753 49.5045 14.4033 51.186V51.186ZM31.5365 62.0706C31.1779 61.6502 31.3631 62.1561 31.5365 62.0706V62.0706ZM42.186 68.6019C42.1623 67.9844 41.616 68.837 42.186 68.6019V68.6019ZM30.596 61.0945C30.7813 60.2775 28.9145 60.8475 30.596 61.0945V61.0945ZM22.654 56.0476C24.1004 55.898 20.317 55.0715 22.654 56.0476V56.0476ZM36.087 64.3981C38.3504 63.4956 33.8593 63.9516 36.087 64.3981V64.3981ZM29.0998 59.66C31.7218 59.9949 25.9814 57.8787 28.5179 59.4748L29.0998 59.66ZM38.2031 65.2626C40.6518 63.7901 39.849 68.6897 42.3594 65.6711C44.8341 63.8661 40.2195 67.9107 43.2738 65.9917C45.4754 64.5192 48.741 66.6971 50.7954 67.4025C52.2798 67.3289 53.7261 68.6898 55.2366 67.8609C58.1674 67.07 49.5224 66.6971 51.7858 65.3006C49.1139 66.0796 47.1355 64.372 45.8245 62.6525C42.8178 61.959 39.355 60.4248 37.8588 57.7671C37.2413 56.7768 38.7375 57.9168 37.3268 56.2827C35.5218 54.6749 34.6169 52.8438 33.4056 50.8891C31.9593 50.122 31.7859 47.8468 31.6363 50.8155C31.6481 48.9345 29.8788 47.6734 29.4584 48.2054C29.4465 46.4004 31.3394 47.3029 30.0141 45.9658C29.7291 44.0848 28.7886 42.1301 28.506 40.0164C28.0738 39.0023 28.4443 36.8244 27.0098 39.1258C26.4896 41.5625 26.8364 36.1333 27.6534 37.9264C28.7174 36.0953 27.271 36.3066 27.2069 36.5655C27.9004 35.0194 27.6534 32.8296 27.0216 33.6585C27.3921 32.0245 27.6154 27.6355 26.4659 28.4145C27.1594 26.7069 27.7769 20.5841 24.7844 22.9211C23.5589 22.933 21.457 23.3676 20.4666 23.8616C23.585 25.5811 20.146 24.4791 18.8825 24.2084C18.721 25.7925 17.4599 25.1109 15.89 25.1228C18.4004 25.4315 14.6645 27.683 13.2181 26.8185C11.3514 27.7091 14.8379 29.9369 13.2561 30.628C13.4533 31.6683 10.399 30.2575 10.6341 32.6562C8.81488 31.8891 10.3871 35.5134 11.2896 34.2903C14.3819 35.1191 13.4675 37.0239 13.5411 38.8431C13.0471 39.8952 11.0664 36.3565 13.1089 36.518C11.501 33.9079 11.3276 35.5775 9.97863 36.7911C9.66988 36.8766 13.4058 38.5225 11.0664 39.3395C13.1208 39.6483 13.1825 41.4556 13.591 42.5933C14.8284 43.8924 14.5814 41.1706 16.0658 42.7286C15.1253 41.344 11.1044 38.8312 14.3344 39.6364C14.3225 38.2517 13.7525 37.126 14.7429 37.1616C15.7333 35.3804 13.7169 41.553 15.9304 39.2896C16.5479 39.0165 16.6975 37.5084 17.8114 39.425C19.4074 41.0091 18.3814 42.1468 16.1299 40.698C16.5265 42.0708 19.1485 42.5648 18.6545 44.707C19.1746 46.5999 19.9038 45.8945 20.5474 45.7948C21.0414 47.6259 21.3264 46.2769 21.3525 45.3981C23.642 45.8921 23.0958 47.2411 23.813 48.1935C25.3829 48.8989 21.5615 43.3699 24.2714 46.5239C27.1048 49.096 25.3354 50.16 22.7751 49.7515C24.3949 49.628 24.915 51.9412 26.9314 51.8534C28.7744 52.7321 30.0236 56.0951 26.8459 54.6986C25.7439 53.7083 21.8489 52.4709 25.0409 54.3638C27.9859 55.7246 30.311 56.5416 33.1563 58.2469C35.1726 59.6932 36.0633 61.3652 36.8304 61.6859C35.1228 62.5029 31.6838 61.0304 34.2321 60.5839C32.648 60.2989 30.8549 59.4961 32.3773 61.4745C33.6764 62.5623 36.9658 62.4387 37.5595 62.5622C37.0513 63.6642 36.1986 63.7498 37.5833 63.8353C36.0371 64.6641 38.0773 64.7876 38.215 65.2579L38.2031 65.2626ZM35.061 56.3682C34.1205 55.3779 33.8735 53.5468 34.8876 55.1428C35.4078 55.3541 36.5573 58.1495 35.061 56.3682ZM45.3163 62.8758C45.8981 62.852 45.3281 63.3223 45.3163 62.8758V62.8758ZM33.5766 53.9576C33.5386 52.4851 33.9115 55.1071 33.5766 53.9576V53.9576ZM32.5506 52.5968C31.375 50.3215 34.0469 53.2404 32.5506 52.5968V52.5968ZM20.2054 44.061C20.8989 43.8758 20.5403 45.2485 20.2054 44.061V44.061ZM30.0403 49.3929C30.4606 47.7969 30.5343 50.7419 30.0403 49.3929V49.3929ZM23.0863 44.5693C22.6041 43.6905 24.1123 45.3981 23.0863 44.5693V44.5693ZM29.0499 46.474C27.936 43.9755 29.8408 45.1131 29.2969 46.8944L29.0499 46.474ZM18.7709 39.6197C18.2769 38.8027 17.448 36.3921 17.7188 35.6606C17.9539 36.8481 20.2553 40.8073 18.8445 37.2946C17.2865 34.3496 20.7113 38.247 21.0723 38.9904C21.2338 39.7195 20.108 38.7933 20.8609 40.4985C19.4763 38.5439 20.0439 41.5744 18.7709 39.6197ZM15.5908 37.43C15.7261 35.5253 16.3199 38.741 15.5908 37.43V37.43ZM17.0253 37.9264C17.7045 36.48 18.1748 39.9309 17.0253 37.9264V37.9264ZM13.5863 35.2664C12.3988 34.0907 11.5461 33.003 13.6361 34.5373C14.4531 34.561 11.8549 32.0767 13.8333 33.7464C15.9233 34.1287 14.8593 37.1735 13.5863 35.2688V35.2664ZM15.3936 35.2165C16.0871 34.5373 15.7523 35.8839 15.3936 35.2165V35.2165ZM16.5075 35.5751C15.4673 33.6205 17.7686 36.3921 16.5075 35.5751V35.5751ZM14.2916 33.4614C10.8526 30.4071 18.6213 35.0693 14.8474 34.0314L14.2916 33.4614ZM24.1503 39.1875C22.654 38.2969 23.7536 32.9033 24.2619 36.5893C25.7083 36.119 24.1764 38.494 25.2523 38.4702C25.0908 39.9665 24.6086 40.5104 24.1503 39.1875ZM27.7888 41.3393C27.9384 39.7195 28.0975 42.4531 27.7888 41.3393V41.3393ZM27.157 40.7099C27.3185 40.0164 27.1689 41.5269 27.157 40.7099V40.7099ZM14.9733 32.4591C12.7598 29.4049 21.3929 35.5395 16.384 33.2262C15.8639 33.0909 15.2345 33.041 14.9733 32.4591ZM21.9866 36.1808C21.7753 33.6086 22.4569 36.6011 21.9866 36.1808V36.1808ZM27.3185 39.596C27.727 38.1354 27.3423 40.5603 27.3185 39.596V39.596ZM15.3058 31.2954C16.6168 31.0104 20.7493 33.5968 16.9516 32.0387C16.5313 31.5685 15.6406 31.7799 15.3058 31.2954ZM26.5751 36.9123C26.7248 34.2903 27.366 35.3424 26.587 37.2827L26.5751 36.9123ZM16.2843 30.381C16.8163 29.602 14.8616 26.8304 16.5693 29.3906C17.2984 29.9725 18.6973 30.3668 17.4599 30.6161C19.4026 32.3237 16.9896 31.0745 16.2843 30.381ZM26.0194 36.0953C26.3899 33.1028 26.3543 37.8385 26.0194 36.0953V36.0953ZM15.1704 27.6213C15.5789 27.4479 15.3818 28.1651 15.1704 27.6213V27.6213ZM17.7069 29.1318C18.3624 27.759 18.9063 30.666 17.7069 29.1318V29.1318ZM24.8675 33.1265C24.8675 32.5945 25.0029 33.8818 24.8675 33.1265V33.1265ZM24.4614 32.1979C23.471 29.7493 25.39 33.497 24.4614 32.1979V32.1979ZM23.8415 30.59C23.68 29.5759 24.4234 31.863 23.8415 30.59V30.59ZM24.8438 28.9703C24.1645 27.7709 25.7106 23.6764 25.8698 26.2129C25.1525 28.1912 25.6726 29.3051 26.1666 26.6451C27.0953 24.5551 25.9695 30.7776 24.8438 28.9703ZM25.8579 22.8831C26.1548 22.5126 25.9315 23.3154 25.8579 22.8831V22.8831ZM24.1645 56.4917C23.756 56.1331 24.2144 56.715 24.1645 56.4917V56.4917ZM27.6771 58.2611C29.6199 58.7694 29.6199 57.9642 27.8505 57.7291C26.8981 56.8385 23.9056 55.898 26.5894 57.6175C26.7628 58.064 27.3328 58.0498 27.6653 58.2611H27.6771ZM20.7374 53.6608C21.8133 54.4659 24.782 55.936 22.2598 53.9576C23.1124 52.9815 20.64 52.4495 21.4546 51.794C19.3765 50.5068 19.8088 50.6302 21.2813 50.6683C18.7566 49.5425 21.6399 49.628 21.5045 49.0485C20.5284 48.8633 16.6928 47.3409 18.9561 49.172C16.6548 48.0083 18.4004 49.6185 17.7069 49.4451C15.3556 48.8015 19.7969 51.2383 17.3364 50.6326C18.6854 51.6966 20.9725 53.3662 17.9064 51.7584C17.4979 52.3402 20.0961 53.219 20.7398 53.6631L20.7374 53.6608ZM24.4115 55.7745C28.8765 57.209 22.2218 54.0051 24.4115 55.7745V55.7745ZM43.212 67.1674C43.2738 66.2768 42.6064 67.9226 43.212 67.1674V67.1674ZM45.1548 67.9844C46.1808 66.9821 45.1928 69.5685 46.8624 67.7374C46.8743 66.4264 46.8125 65.6474 44.9458 67.2434C44.4256 67.5284 44.2024 68.7396 45.1571 67.9867L45.1548 67.9844ZM14.4531 48.6994C14.1444 47.462 12.2396 47.462 14.4531 48.6994V48.6994ZM16.5194 50.0602C15.7523 48.7872 13.7858 48.9107 16.5194 50.0602V50.0602ZM28.2709 57.1496C29.4204 58.1637 33.541 57.893 29.6698 57.2731C29.0879 56.4205 26.0218 56.6295 28.2709 57.1496ZM44.4138 67.1175C46.1831 65.6331 42.7061 67.773 44.4138 67.1175V67.1175ZM48.0855 69.6302C48.0974 69.16 47.3303 69.8416 48.0855 69.6302V69.6302ZM48.0855 68.9748C50.0401 66.8966 46.1926 69.0983 48.0855 68.9748V68.9748ZM9.3825 44.4576C7.71288 42.0826 8.34225 41.0067 6.73438 39.0759C6.4375 37.5796 3.98888 34.2143 5.47325 37.7886C6.83413 39.8668 7.24263 43.0944 9.3825 44.4553V44.4576ZM47.4799 68.305C51.0804 65.9918 46.0074 67.3027 47.4799 68.305V68.305ZM50.2278 69.3833C52.0328 67.849 49.0901 69.0626 50.2278 69.3833V69.3833ZM13.8475 46.0774C14.3676 45.3102 12.5246 45.9776 13.8475 46.0774V46.0774ZM49.6459 68.6518C51.3891 67.526 49.2493 67.6994 49.3371 68.7515L49.6459 68.6518ZM25.9933 53.7344C25.9315 52.9791 25.0646 53.7961 25.9933 53.7344V53.7344ZM27.4539 54.5751C26.9836 53.6346 26.7366 54.7248 27.4539 54.5751V54.5751ZM52.4531 69.4189C54.6809 67.7991 51.0923 69.0983 51.9829 69.7158L52.4531 69.4189ZM51.6005 68.9985C53.4198 67.4761 49.6696 69.6777 51.6005 68.9985V68.9985ZM55.9658 71.9055C57.1913 71.0885 54.4814 71.6466 55.9658 71.9055V71.9055ZM14.9733 45.5216C16.6073 45.8921 21.5164 49.5544 18.6213 45.7805C17.1369 45.334 18.0275 41.7098 16.5051 42.3534C17.5193 44.0491 17.3459 44.7782 15.2179 43.7024C12.5341 42.4032 13.7098 44.3579 14.2275 44.8899C13.5221 45.0514 15.1799 45.5074 14.9709 45.5216H14.9733ZM7.51338 39.634C7.79838 38.4227 4.8035 32.9674 6.09075 36.9004C6.561 37.7174 6.51113 39.2873 7.51338 39.634ZM21.1958 48.0819C20.355 47.3765 21.1578 47.9703 21.1958 48.0819V48.0819ZM23.2739 48.564C23.2739 47.2768 20.9844 48.0439 23.2739 48.564V48.564ZM41.2716 59.907C40.9249 59.0283 39.9108 59.8833 41.2716 59.907V59.907ZM42.1361 60.5387C42.0126 60.0448 41.6421 60.6242 42.1361 60.5387V60.5387ZM49.273 65.0275C49.9523 64.5192 48.4204 64.9657 49.273 65.0275V65.0275ZM11.2374 40.5864C13.2039 39.8193 9.1355 40.0425 11.2374 40.5864V40.5864ZM39.6875 58.5081C39.6638 57.2351 38.4383 58.8288 39.6875 58.5081V58.5081ZM10.4584 38.779C11.7195 38.3467 9.29463 38.494 10.4584 38.779V38.779ZM14.1183 40.5484C14.0945 40.128 13.7359 40.7099 14.1183 40.5484V40.5484ZM58.7374 67.9108C60.3571 67.5901 64.0574 68.7396 64.6511 67.4785C62.6846 67.4405 57.8349 66.0939 57.6116 67.7991L58.0439 67.8727L58.7374 67.9108ZM15.282 40.8452C15.3058 39.558 14.2798 40.7954 15.282 40.8452V40.8452ZM5.6585 34.1644C5.22625 31.7158 4.00075 33.7939 5.6585 34.1644V34.1644ZM7.95988 34.7463C7.98363 33.9554 5.858 34.029 7.95988 34.7463V34.7463ZM9.27088 35.3899C8.8885 35.0811 8.974 35.7723 9.27088 35.3899V35.3899ZM17.5074 40.6719C17.904 40.3251 16.593 40.413 17.5074 40.6719V40.6719ZM8.39213 33.9435C8.16888 32.0886 5.73213 33.6585 8.39213 33.9435V33.9435ZM3.692 30.8869C3.63025 30.0343 3.23363 31.2075 3.692 30.8869V30.8869ZM4.38313 30.3549C4.2715 29.3408 3.78938 30.4784 4.38313 30.3549V30.3549ZM8.25675 32.6681C9.89075 32.0245 5.27613 31.331 7.92188 32.5446L8.25675 32.6681ZM59.9748 64.6071C61.0269 63.6547 58.6519 64.3102 59.9748 64.6071V64.6071ZM66.2329 67.849C66.6414 66.6116 65.1689 68.0105 66.2329 67.849V67.849ZM8.651 30.6399C8.82438 29.4405 7.35188 30.875 8.651 30.6399V30.6399ZM3.14813 26.9539C2.85125 25.2581 2.90113 22.2894 5.72025 23.2916C1.94638 24.0469 8.33038 27.9799 7.52525 24.8758C9.10938 24.9494 10.6294 23.9353 9.78863 25.4814C12.9189 25.1346 15.0825 22.4271 18.1011 22.7976C20.4524 22.4889 23.0245 22.2538 25.561 21.3133C27.6391 21.1518 29.6436 18.9145 28.506 17.5893C25.6608 17.3423 22.692 17.7009 19.5499 18.3184C16.0729 19.0475 12.9189 20.4203 9.40625 21.014C5.97913 21.4724 10.0855 22.2751 9.10938 22.4604C7.32813 23.0779 11.2374 23.5006 8.87425 24.1419C7.42788 23.8688 5.9055 23.3629 6.523 21.8286C3.2455 22.249 0.362253 23.6218 2.9605 26.9491L3.14813 26.9539ZM11.0521 22.933C11.8193 20.0996 15.1704 25.2581 12.3133 23.3035C11.9665 23.0565 11.4108 22.8451 11.0521 22.933ZM11.1994 21.5603C12.3014 20.7433 11.7813 22.0186 11.1994 21.5603V21.5603ZM12.6101 21.5864C12.7099 20.2873 15.8259 22.2799 13.1184 22.0566L12.6101 21.5864ZM14.5268 20.805C15.2321 19.988 14.7381 21.5484 14.5268 20.805V20.805ZM15.0231 20.4844C16.1988 19.0736 21.666 19.5819 17.657 20.349C16.593 19.5439 15.7641 20.8193 15.0231 20.4844ZM22.16 19.3824C21.9748 15.5349 25.6988 20.7551 22.16 19.3824V19.3824ZM24.1764 19.3705C24.9198 17.4278 27.0454 18.5915 24.5231 18.9739C24.573 19.1853 24.4495 19.9761 24.1764 19.3705ZM7.84825 29.6495C10.0618 28.2886 5.51125 28.4739 7.84825 29.6495V29.6495ZM9.47988 30.1079C10.2589 29.279 7.79838 29.7611 9.47988 30.1079V30.1079ZM4.66813 26.6808C5.92925 25.7165 3.18375 26.3103 4.66813 26.6808V26.6808ZM69.9189 67.5023C69.9569 66.3765 68.9546 68.0105 69.9189 67.5023V67.5023ZM63.2903 62.9755C63.4755 61.6764 62.4376 63.0871 63.2903 62.9755V62.9755ZM71.7381 67.9345C73.5075 67.9345 77.0819 67.3906 73.2463 67.3906C72.6406 67.4904 69.7336 67.4643 71.7381 67.9345ZM10.9144 29.3051C12.3489 29.2054 13.154 27.7353 10.6413 27.8207C6.74388 27.4123 14.0684 29.1436 10.1473 28.6496C9.61525 28.9964 10.8906 29.4049 10.9144 29.3051ZM12.1779 29.9464C12.0283 29.0178 11.7314 30.4285 12.1779 29.9464V29.9464ZM13.6623 25.9635C14.294 25.1964 12.8096 25.7521 13.6623 25.9635V25.9635ZM8.91225 18.0239C11.4725 17.157 14.9614 16.1809 16.1608 18.4443C14.9353 16.9718 15.6668 15.5254 16.8281 17.6771C18.4621 19.8669 19.2768 16.6868 18.2128 15.9576C19.424 17.4658 20.7991 18.1711 19.0298 16.0431C20.9606 13.7299 15.1585 16.3519 13.8333 16.3281C13.2015 16.6131 7.27825 17.8363 8.92175 18.0239H8.91225ZM10.4085 15.1644C11.8691 14.0624 15.4435 15.808 13.1421 14.0624C12.9308 13.8771 8.119 15.3853 10.4085 15.1644ZM15.7143 15.3758C17.4219 15.4256 14.9851 13.1005 17.0134 14.1503C16.6785 13.0625 14.6503 12.8511 13.648 12.4189C13.0923 13.4211 14.7975 15.3876 15.7143 15.3758ZM11.349 10.564C11.9309 9.77313 10.3088 10.9725 11.349 10.564V10.564ZM13.5126 11.0841C16.2463 10.7255 12.8073 9.9085 12.9569 11.0604L13.5126 11.0841ZM9.468 7.91588C7.53713 5.39125 13.0923 8.34813 11.1376 5.70238C9.47988 4.39138 7.89575 7.18675 9.468 7.91588ZM34.244 21.2634C35.1346 19.6935 30.5818 19.1473 33.6503 20.7076C33.9353 20.8074 33.8616 21.375 34.244 21.2634Z" fill="white"/>
</g>
<defs>
<clipPath id="clip0_2_439">
<rect width="76" height="76" fill="white" transform="translate(0.5)"/>
</clipPath>
</defs>
</svg>
