<svg width="76" height="76" viewBox="0 0 76 76" fill="none" xmlns="http://www.w3.org/2000/svg">
<g clip-path="url(#clip0_2_332)">
<path d="M16.0864 0H19.5128V3.38517H22.6478V0H26.0741V10.2473H22.6478V6.81783H19.5128V10.2473H16.0896V0H16.0864Z" fill="white"/>
<path d="M30.5772 3.39783H27.5625V0H37.0213V3.39783H34.0035V10.2473H30.5772V3.39783Z" fill="white"/>
<path d="M38.5225 0H42.0945L44.2921 3.6005L46.4866 0H50.0586V10.2473H46.6481V5.168L44.2921 8.81283H44.232L41.8728 5.17117V10.2473H38.5225V0Z" fill="white"/>
<path d="M51.7622 0H55.1917V6.86217H60.005V10.2505H51.7622V0Z" fill="white"/>
<path fill-rule="evenodd" clip-rule="evenodd" d="M15.979 69.8947L9.5 14.9372H66.5L60.0178 69.8883L37.9683 76L15.979 69.8947ZM29.0795 39.8113L28.4652 32.908H54.2577L54.8593 26.1693H21.1027L22.9203 46.5532H46.2808L45.4987 55.2932L37.981 57.3262H37.9747L30.4697 55.2995L29.9883 49.9257H23.218L24.1617 60.5087L37.9683 64.3403L51.7972 60.5087L53.4818 41.6227L53.6465 39.8145H29.0795V39.8113Z" fill="white"/>
</g>
<defs>
<clipPath id="clip0_2_332">
<rect width="76" height="76" fill="white"/>
</clipPath>
</defs>
</svg>
