<svg width="77" height="76" viewBox="0 0 77 76" fill="none" xmlns="http://www.w3.org/2000/svg">
<g clip-path="url(#clip0_2_421)">
<path d="M38.4998 75.8607C37.4168 75.8607 36.4098 75.5788 35.4693 75.0912L25.8775 69.5875C24.4367 68.8212 25.1587 68.5425 25.5925 68.4032C27.5368 67.7762 27.8978 67.6368 29.9182 66.519C30.1335 66.3797 30.4248 66.4493 30.6402 66.5887L37.9963 70.8415C38.2813 70.9808 38.6455 70.9808 38.8608 70.8415L67.6363 54.7422C67.9213 54.6028 68.067 54.3242 68.067 53.9758V21.8468C68.067 21.4985 67.9245 21.2198 67.6363 21.0805L38.8608 5.05401C38.5727 4.91467 38.2117 4.91467 37.9963 5.05401L9.22084 21.0805C8.93267 21.2198 8.787 21.5682 8.787 21.8468V53.9758C8.787 54.2545 8.93267 54.6028 9.22084 54.7422L17.0805 59.1343C21.3365 61.2243 24.0028 58.786 24.0028 56.3477V24.6367C24.0028 24.2187 24.3638 23.8007 24.8705 23.8007H28.547C28.9808 23.8007 29.4115 24.149 29.4115 24.6367V56.3445C29.4115 61.8513 26.3113 65.056 20.9027 65.056C19.2433 65.056 17.945 65.056 14.2685 63.3143L6.697 59.1343C5.78464 58.6326 5.02273 57.8965 4.48999 57.0019C3.95724 56.1073 3.67296 55.0867 3.6665 54.0455V21.9165C3.6665 19.8265 4.81917 17.8758 6.697 16.8308L35.4725 0.728341C36.4093 0.247914 37.447 -0.00265503 38.4998 -0.00265503C39.5527 -0.00265503 40.5904 0.247914 41.5272 0.728341L70.3058 16.8277C72.1805 17.8727 73.3332 19.8233 73.3332 21.9133V54.0423C73.3332 56.1323 72.1805 58.083 70.3058 59.1312L41.5272 75.2273C40.5717 75.6415 39.5413 75.855 38.4998 75.8543V75.8607ZM47.3697 53.7668C34.7505 53.7668 32.1538 48.1935 32.1538 43.453C32.1538 43.035 32.5148 42.617 33.0183 42.617H36.7677C37.2015 42.617 37.5593 42.8957 37.5593 43.3137C38.1388 47.006 39.7982 48.8173 47.4425 48.8173C53.5003 48.8173 56.097 47.4937 56.097 44.3587C56.097 42.5473 55.375 41.2237 45.9288 40.318C38.066 39.5485 33.164 37.8797 33.164 31.8155C33.164 26.1693 38.066 22.8222 46.2898 22.8222C55.5207 22.8222 60.0648 25.8907 60.6412 32.5818C60.6347 32.8084 60.5584 33.0274 60.4227 33.2088C60.2802 33.3482 60.0648 33.4875 59.8463 33.4875H56.097C55.9149 33.4831 55.7391 33.4195 55.5963 33.3064C55.4535 33.1933 55.3513 33.0368 55.3053 32.8605C54.4377 29.0288 52.202 27.7717 46.2898 27.7717C39.6525 27.7717 38.8608 30.001 38.8608 31.673C38.8608 33.6965 39.7982 34.3235 48.7408 35.4382C57.6107 36.5528 61.7938 38.1552 61.7938 44.1465C61.721 50.2835 56.5308 53.7668 47.3697 53.7668Z" fill="white"/>
</g>
<defs>
<clipPath id="clip0_2_421">
<rect width="76" height="76" fill="white" transform="translate(0.5)"/>
</clipPath>
</defs>
</svg>
