<svg width="77" height="76" viewBox="0 0 77 76" fill="none" xmlns="http://www.w3.org/2000/svg">
<g clip-path="url(#clip0_2_415)">
<path d="M29.2472 12.5558C27.3852 12.5558 25.52 13.471 24.4529 15.3013L1.24754 55.2045C-0.880464 58.8652 1.78587 63.441 6.04187 63.441H24.1552C23.2156 62.6296 22.5901 61.5145 22.3876 60.2897C22.1851 59.0649 22.4184 57.8078 23.0469 56.7372L40.6124 26.6127L34.0384 15.3013C33.5534 14.4613 32.8546 13.7648 32.013 13.2825C31.1714 12.8002 30.2171 12.5495 29.2472 12.5558ZM52.7027 21.8088C51.1605 21.8088 49.6215 22.5562 48.738 24.054L29.5385 56.7023C27.7747 59.6948 29.9755 63.4473 33.5 63.4473H71.9117C75.4394 63.4473 77.6434 59.6948 75.8795 56.7023L56.6674 24.054C56.2626 23.3637 55.6829 22.7924 54.9868 22.3977C54.2907 22.003 53.5029 21.7988 52.7027 21.8057V21.8088Z" fill="white"/>
</g>
<defs>
<clipPath id="clip0_2_415">
<rect width="76" height="76" fill="white" transform="translate(0.5)"/>
</clipPath>
</defs>
</svg>
