<svg width="76" height="76" viewBox="0 0 76 76" fill="none" xmlns="http://www.w3.org/2000/svg">
<g clip-path="url(#clip0_2_256)">
<path d="M37.7277 0C18.43 0 19.6333 8.41067 19.6333 8.41067L19.6555 17.1253H38.0665V19.741H12.35C12.35 19.741 0 18.3318 0 37.9018C0 57.4718 10.7762 56.7752 10.7762 56.7752H17.2045V47.6963C17.2045 47.6963 16.8593 36.8663 27.8128 36.8663H46.0718C46.0718 36.8663 56.3318 37.031 56.3318 26.8977V10.1397C56.3318 10.1397 57.8867 0 37.7245 0H37.7277ZM27.5753 5.85833C29.4057 5.85833 30.8877 7.34667 30.8877 9.18967C30.8877 11.0295 29.4057 12.5178 27.5753 12.5178C25.7418 12.5178 24.263 11.0295 24.263 9.18967C24.263 7.34667 25.7418 5.85833 27.5753 5.85833Z" fill="white"/>
<path d="M38.2756 76C57.567 76 56.3636 67.5893 56.3636 67.5893L56.3415 58.8747H37.9305V56.259H63.6533C63.6533 56.259 76.0033 57.6682 76.0033 38.0982C76.0033 18.5282 65.224 19.2248 65.224 19.2248H58.7956V28.3037C58.7956 28.3037 59.1408 39.1337 48.1873 39.1337H29.9315C29.9315 39.1337 19.6715 38.969 19.6715 49.1023V65.8603C19.6715 65.8603 18.1135 76 38.2756 76ZM48.428 70.1417C46.5945 70.1417 45.1156 68.6533 45.1156 66.8103C45.1156 64.9705 46.5945 63.4822 48.428 63.4822C50.2583 63.4822 51.7403 64.9705 51.7403 66.8103C51.7403 68.6533 50.2583 70.1417 48.428 70.1417Z" fill="white"/>
</g>
<defs>
<clipPath id="clip0_2_256">
<rect width="76" height="76" fill="white"/>
</clipPath>
</defs>
</svg>
