<svg width="77" height="76" viewBox="0 0 77 76" fill="none" xmlns="http://www.w3.org/2000/svg">
<g clip-path="url(#clip0_2_394)">
<path d="M19.5 30.3803C22.0326 20.2212 28.3674 15.1406 38.5 15.1406C53.7 15.1406 55.6 26.5703 63.2 28.4752C68.2674 29.7458 72.7 27.8409 76.5 22.7604C73.9674 32.9194 67.6326 38 57.5 38C42.3 38 40.4 26.5703 32.8 24.6654C27.7326 23.3948 23.3 25.2997 19.5 30.3803ZM0.5 53.2396C3.03264 43.0806 9.36736 38 19.5 38C34.7 38 36.6 49.4297 44.2 51.3346C49.2674 52.6052 53.7 50.7003 57.5 45.6197C54.9674 55.7788 48.6326 60.8594 38.5 60.8594C23.3 60.8594 21.4 49.4297 13.8 47.5248C8.73264 46.2542 4.3 48.1591 0.5 53.2396Z" fill="white"/>
</g>
<defs>
<clipPath id="clip0_2_394">
<rect width="76" height="76" fill="white" transform="translate(0.5)"/>
</clipPath>
</defs>
</svg>
