<svg width="77" height="76" viewBox="0 0 77 76" fill="none" xmlns="http://www.w3.org/2000/svg">
<g clip-path="url(#clip0_2_400)">
<path d="M13.5467 49.2765H3.54004V56.9747H13.5467V49.2765ZM57.0187 62.6398C57.0145 66.1824 55.6051 69.5787 53.0999 72.0834C50.5946 74.5881 47.198 75.9967 43.6554 76C35.8907 76 31.2484 70.1797 31.2484 64.5462H38.8864C38.8864 66.1295 40.3652 68.3652 43.6554 68.3652C45.1744 68.3643 46.631 67.7605 47.7051 66.6864C48.7792 65.6123 49.383 64.1557 49.3839 62.6367C49.3839 59.4795 46.48 56.9113 41.2677 56.9113H18.1985V49.2765H41.2677C51.0749 49.2765 57.0187 55.271 57.0187 62.6398ZM57.0187 62.6398C57.0145 66.1824 55.6051 69.5787 53.0999 72.0834C50.5946 74.5881 47.198 75.9967 43.6554 76C35.8907 76 31.2484 70.1797 31.2484 64.5462H38.8864C38.8864 66.1295 40.3652 68.3652 43.6554 68.3652C45.1744 68.3643 46.631 67.7605 47.7051 66.6864C48.7792 65.6123 49.383 64.1557 49.3839 62.6367C49.3839 59.4795 46.48 56.9113 41.2677 56.9113H18.1985V49.2765H41.2677C51.0749 49.2765 57.0187 55.271 57.0187 62.6398ZM59.02 11.78C50.5967 11.78 44.656 18.183 44.656 26.6063H51.42C51.42 22.42 54.46 19.38 59.02 19.38C63.58 19.38 65.86 22.42 65.86 26.6063C65.86 30.7927 62.8992 34.2412 54.84 34.2412H3.54004V41.876H55.98C67.9152 41.876 73.46 34.2063 73.46 26.6063C73.46 18.183 67.76 11.78 59.02 11.78ZM40.0802 13.3633C40.0769 9.82019 38.6679 6.42312 36.1625 3.91773C33.6571 1.41235 30.26 0.00335367 26.7169 0C18.9522 0 14.3099 5.82033 14.3099 11.4538H21.9447C21.9447 9.8705 23.4267 7.63483 26.7169 7.63483C28.2359 7.63567 29.6925 8.23948 30.7666 9.3136C31.8407 10.3877 32.4445 11.8443 32.4454 13.3633C32.4454 16.5205 30.14 19.0887 24.3292 19.0887H3.54004V26.7235H24.3292C34.1364 26.7235 40.0802 20.729 40.0802 13.3602V13.3633ZM40.0802 13.3633C40.0769 9.82019 38.6679 6.42312 36.1625 3.91773C33.6571 1.41235 30.26 0.00335367 26.7169 0C18.9522 0 14.3099 5.82033 14.3099 11.4538H21.9447C21.9447 9.8705 23.4267 7.63483 26.7169 7.63483C28.2359 7.63567 29.6925 8.23948 30.7666 9.3136C31.8407 10.3877 32.4445 11.8443 32.4454 13.3633C32.4454 16.5205 30.14 19.0887 24.3292 19.0887H3.54004V26.7235H24.3292C34.1364 26.7235 40.0802 20.729 40.0802 13.3602V13.3633Z" fill="white"/>
</g>
<defs>
<clipPath id="clip0_2_400">
<rect width="76" height="76" fill="white" transform="translate(0.5)"/>
</clipPath>
</defs>
</svg>
